%TF.GenerationSoftware,KiCad,Pcbnew,7.0.7*%
%TF.CreationDate,2024-12-08T13:35:24-04:00*%
%TF.ProjectId,Tarea Final,54617265-6120-4466-996e-616c2e6b6963,rev?*%
%TF.SameCoordinates,Original*%
%TF.FileFunction,Copper,L1,Top*%
%TF.FilePolarity,Positive*%
%FSLAX46Y46*%
G04 Gerber Fmt 4.6, Leading zero omitted, Abs format (unit mm)*
G04 Created by KiCad (PCBNEW 7.0.7) date 2024-12-08 13:35:24*
%MOMM*%
%LPD*%
G01*
G04 APERTURE LIST*
G04 Aperture macros list*
%AMRoundRect*
0 Rectangle with rounded corners*
0 $1 Rounding radius*
0 $2 $3 $4 $5 $6 $7 $8 $9 X,Y pos of 4 corners*
0 Add a 4 corners polygon primitive as box body*
4,1,4,$2,$3,$4,$5,$6,$7,$8,$9,$2,$3,0*
0 Add four circle primitives for the rounded corners*
1,1,$1+$1,$2,$3*
1,1,$1+$1,$4,$5*
1,1,$1+$1,$6,$7*
1,1,$1+$1,$8,$9*
0 Add four rect primitives between the rounded corners*
20,1,$1+$1,$2,$3,$4,$5,0*
20,1,$1+$1,$4,$5,$6,$7,0*
20,1,$1+$1,$6,$7,$8,$9,0*
20,1,$1+$1,$8,$9,$2,$3,0*%
G04 Aperture macros list end*
%TA.AperFunction,SMDPad,CuDef*%
%ADD10R,1.800000X1.000000*%
%TD*%
%TA.AperFunction,SMDPad,CuDef*%
%ADD11R,2.500000X2.500000*%
%TD*%
%TA.AperFunction,SMDPad,CuDef*%
%ADD12RoundRect,0.062500X0.350000X-0.062500X0.350000X0.062500X-0.350000X0.062500X-0.350000X-0.062500X0*%
%TD*%
%TA.AperFunction,SMDPad,CuDef*%
%ADD13RoundRect,0.062500X0.062500X-0.350000X0.062500X0.350000X-0.062500X0.350000X-0.062500X-0.350000X0*%
%TD*%
%TA.AperFunction,SMDPad,CuDef*%
%ADD14RoundRect,0.135000X0.135000X0.185000X-0.135000X0.185000X-0.135000X-0.185000X0.135000X-0.185000X0*%
%TD*%
%TA.AperFunction,SMDPad,CuDef*%
%ADD15RoundRect,0.135000X-0.135000X-0.185000X0.135000X-0.185000X0.135000X0.185000X-0.135000X0.185000X0*%
%TD*%
%TA.AperFunction,SMDPad,CuDef*%
%ADD16RoundRect,0.147500X0.172500X-0.147500X0.172500X0.147500X-0.172500X0.147500X-0.172500X-0.147500X0*%
%TD*%
%TA.AperFunction,SMDPad,CuDef*%
%ADD17RoundRect,0.147500X0.147500X0.172500X-0.147500X0.172500X-0.147500X-0.172500X0.147500X-0.172500X0*%
%TD*%
%TA.AperFunction,SMDPad,CuDef*%
%ADD18RoundRect,0.147500X-0.172500X0.147500X-0.172500X-0.147500X0.172500X-0.147500X0.172500X0.147500X0*%
%TD*%
%TA.AperFunction,ComponentPad*%
%ADD19O,0.900000X1.400000*%
%TD*%
%TA.AperFunction,ComponentPad*%
%ADD20RoundRect,0.225000X0.225000X0.475000X-0.225000X0.475000X-0.225000X-0.475000X0.225000X-0.475000X0*%
%TD*%
%TA.AperFunction,SMDPad,CuDef*%
%ADD21RoundRect,0.140000X-0.140000X-0.170000X0.140000X-0.170000X0.140000X0.170000X-0.140000X0.170000X0*%
%TD*%
%TA.AperFunction,SMDPad,CuDef*%
%ADD22RoundRect,0.140000X0.140000X0.170000X-0.140000X0.170000X-0.140000X-0.170000X0.140000X-0.170000X0*%
%TD*%
%TA.AperFunction,SMDPad,CuDef*%
%ADD23RoundRect,0.140000X-0.170000X0.140000X-0.170000X-0.140000X0.170000X-0.140000X0.170000X0.140000X0*%
%TD*%
%TA.AperFunction,ConnectorPad*%
%ADD24R,0.500000X0.500000*%
%TD*%
%TA.AperFunction,ComponentPad*%
%ADD25R,0.900000X0.500000*%
%TD*%
%TA.AperFunction,ViaPad*%
%ADD26C,0.800000*%
%TD*%
%TA.AperFunction,Conductor*%
%ADD27C,0.250000*%
%TD*%
G04 APERTURE END LIST*
%TA.AperFunction,EtchedComponent*%
%TO.C,AE1*%
G36*
X152480000Y-74620000D02*
G01*
X154480000Y-74620000D01*
X154480000Y-71980000D01*
X157180000Y-71980000D01*
X157180000Y-74620000D01*
X159180000Y-74620000D01*
X159180000Y-71980000D01*
X161880000Y-71980000D01*
X161880000Y-76420000D01*
X161380000Y-76420000D01*
X161380000Y-72480000D01*
X159680000Y-72480000D01*
X159680000Y-75120000D01*
X156680000Y-75120000D01*
X156680000Y-72480000D01*
X154980000Y-72480000D01*
X154980000Y-75120000D01*
X151980000Y-75120000D01*
X151980000Y-72480000D01*
X150280000Y-72480000D01*
X150280000Y-77380000D01*
X149780000Y-77380000D01*
X149780000Y-72480000D01*
X148380000Y-72480000D01*
X148380000Y-77380000D01*
X147480000Y-77380000D01*
X147480000Y-77136785D01*
X147782417Y-77136785D01*
X147792258Y-77184395D01*
X147816326Y-77226797D01*
X147854269Y-77259581D01*
X147862181Y-77263935D01*
X147904844Y-77276043D01*
X147953363Y-77275300D01*
X147998878Y-77262400D01*
X148017489Y-77251787D01*
X148051132Y-77216553D01*
X148071691Y-77171368D01*
X148078222Y-77121842D01*
X148069782Y-77073583D01*
X148052888Y-77041357D01*
X148017628Y-77008687D01*
X147972318Y-76988592D01*
X147922733Y-76982018D01*
X147874647Y-76989908D01*
X147841755Y-77006814D01*
X147806815Y-77043584D01*
X147787153Y-77088378D01*
X147782417Y-77136785D01*
X147480000Y-77136785D01*
X147480000Y-71980000D01*
X152480000Y-71980000D01*
X152480000Y-74620000D01*
G37*
%TD.AperFunction*%
%TD*%
D10*
%TO.P,Y1,2,2*%
%TO.N,Net-(U1-XC1)*%
X164338000Y-84348000D03*
%TO.P,Y1,1,1*%
%TO.N,Net-(U1-XC2)*%
X164338000Y-86848000D03*
%TD*%
D11*
%TO.P,U1,21*%
%TO.N,N/C*%
X156718000Y-85598000D03*
D12*
%TO.P,U1,20,VSS*%
%TO.N,GND*%
X154780500Y-86598000D03*
%TO.P,U1,19,DVDD*%
%TO.N,Net-(U1-DVDD)*%
X154780500Y-86098000D03*
%TO.P,U1,18,VDD*%
%TO.N,VDD*%
X154780500Y-85598000D03*
%TO.P,U1,17,VSS*%
%TO.N,GND*%
X154780500Y-85098000D03*
%TO.P,U1,16,IREF*%
%TO.N,Net-(U1-IREF)*%
X154780500Y-84598000D03*
D13*
%TO.P,U1,15,VDD*%
%TO.N,VDD*%
X155718000Y-83660500D03*
%TO.P,U1,14,VSS*%
%TO.N,GND*%
X156218000Y-83660500D03*
%TO.P,U1,13,ANT2*%
%TO.N,Net-(U1-ANT2)*%
X156718000Y-83660500D03*
%TO.P,U1,12,ANT1*%
%TO.N,Net-(U1-ANT1)*%
X157218000Y-83660500D03*
%TO.P,U1,11,VDD_PA*%
%TO.N,Net-(U1-VDD_PA)*%
X157718000Y-83660500D03*
D12*
%TO.P,U1,10,XC1*%
%TO.N,Net-(U1-XC1)*%
X158655500Y-84598000D03*
%TO.P,U1,9,XC2*%
%TO.N,Net-(U1-XC2)*%
X158655500Y-85098000D03*
%TO.P,U1,8,VSS*%
%TO.N,GND*%
X158655500Y-85598000D03*
%TO.P,U1,7,VDD*%
%TO.N,VDD*%
X158655500Y-86098000D03*
%TO.P,U1,6,IRQ*%
%TO.N,Net-(J1-Pin_7)*%
X158655500Y-86598000D03*
D13*
%TO.P,U1,5,MISO*%
%TO.N,Net-(J1-Pin_3)*%
X157718000Y-87535500D03*
%TO.P,U1,4,MOSI*%
%TO.N,Net-(J1-Pin_2)*%
X157218000Y-87535500D03*
%TO.P,U1,3,SCK*%
%TO.N,Net-(J1-Pin_4)*%
X156718000Y-87535500D03*
%TO.P,U1,2,CSN*%
%TO.N,Net-(J1-Pin_5)*%
X156218000Y-87535500D03*
%TO.P,U1,1,CE*%
%TO.N,Net-(J1-Pin_6)*%
X155718000Y-87535500D03*
%TD*%
D14*
%TO.P,R2,2*%
%TO.N,Net-(U1-XC1)*%
X160780000Y-82296000D03*
%TO.P,R2,1*%
%TO.N,Net-(U1-XC2)*%
X161800000Y-82296000D03*
%TD*%
D15*
%TO.P,R1,2*%
%TO.N,GND*%
X161546000Y-89154000D03*
%TO.P,R1,1*%
%TO.N,Net-(U1-IREF)*%
X160526000Y-89154000D03*
%TD*%
D16*
%TO.P,L4,1,1*%
%TO.N,Net-(C10-Pad2)*%
X147828000Y-81280000D03*
%TO.P,L4,2,2*%
%TO.N,Net-(AE1-A)*%
X147828000Y-80310000D03*
%TD*%
D17*
%TO.P,L3,2,2*%
%TO.N,Net-(U1-VDD_PA)*%
X151153000Y-85852000D03*
%TO.P,L3,1,1*%
%TO.N,Net-(U1-ANT2)*%
X152123000Y-85852000D03*
%TD*%
%TO.P,L2,2,2*%
%TO.N,Net-(C7-Pad1)*%
X156835000Y-80635000D03*
%TO.P,L2,1,1*%
%TO.N,Net-(U1-ANT1)*%
X157805000Y-80635000D03*
%TD*%
D18*
%TO.P,L1,2,2*%
%TO.N,Net-(U1-ANT2)*%
X159258000Y-82019000D03*
%TO.P,L1,1,1*%
%TO.N,Net-(U1-ANT1)*%
X159258000Y-81049000D03*
%TD*%
D19*
%TO.P,J1,8,Pin_8*%
%TO.N,GND*%
X151230000Y-92964000D03*
%TO.P,J1,7,Pin_7*%
%TO.N,Net-(J1-Pin_7)*%
X152480000Y-92964000D03*
%TO.P,J1,6,Pin_6*%
%TO.N,Net-(J1-Pin_6)*%
X153730000Y-92964000D03*
%TO.P,J1,5,Pin_5*%
%TO.N,Net-(J1-Pin_5)*%
X154980000Y-92964000D03*
%TO.P,J1,4,Pin_4*%
%TO.N,Net-(J1-Pin_4)*%
X156230000Y-92964000D03*
%TO.P,J1,3,Pin_3*%
%TO.N,Net-(J1-Pin_3)*%
X157480000Y-92964000D03*
%TO.P,J1,2,Pin_2*%
%TO.N,Net-(J1-Pin_2)*%
X158730000Y-92964000D03*
D20*
%TO.P,J1,1,Pin_1*%
%TO.N,VDD*%
X159980000Y-92964000D03*
%TD*%
D21*
%TO.P,C11,2*%
%TO.N,Net-(AE1-A)*%
X150340000Y-80264000D03*
%TO.P,C11,1*%
%TO.N,GND*%
X149380000Y-80264000D03*
%TD*%
%TO.P,C10,2*%
%TO.N,Net-(C10-Pad2)*%
X147574000Y-83566000D03*
%TO.P,C10,1*%
%TO.N,GND*%
X146614000Y-83566000D03*
%TD*%
%TO.P,C9,2*%
%TO.N,Net-(C10-Pad2)*%
X147546000Y-85852000D03*
%TO.P,C9,1*%
%TO.N,GND*%
X146586000Y-85852000D03*
%TD*%
D22*
%TO.P,C8,2*%
%TO.N,GND*%
X154323000Y-81143000D03*
%TO.P,C8,1*%
%TO.N,Net-(U1-VDD_PA)*%
X155283000Y-81143000D03*
%TD*%
%TO.P,C7,2*%
%TO.N,Net-(C10-Pad2)*%
X148872000Y-85852000D03*
%TO.P,C7,1*%
%TO.N,Net-(C7-Pad1)*%
X149832000Y-85852000D03*
%TD*%
%TO.P,C6,2*%
%TO.N,GND*%
X154323000Y-79873000D03*
%TO.P,C6,1*%
%TO.N,Net-(U1-VDD_PA)*%
X155283000Y-79873000D03*
%TD*%
D23*
%TO.P,C5,2*%
%TO.N,GND*%
X146812000Y-89380000D03*
%TO.P,C5,1*%
%TO.N,Net-(U1-XC1)*%
X146812000Y-88420000D03*
%TD*%
%TO.P,C4,2*%
%TO.N,GND*%
X160899000Y-86449000D03*
%TO.P,C4,1*%
%TO.N,Net-(U1-XC2)*%
X160899000Y-85489000D03*
%TD*%
D21*
%TO.P,C3,2*%
%TO.N,GND*%
X147772000Y-92456000D03*
%TO.P,C3,1*%
%TO.N,Net-(U1-DVDD)*%
X146812000Y-92456000D03*
%TD*%
%TO.P,C2,2*%
%TO.N,GND*%
X152235000Y-88001000D03*
%TO.P,C2,1*%
%TO.N,VDD*%
X151275000Y-88001000D03*
%TD*%
%TO.P,C1,2*%
%TO.N,GND*%
X151727000Y-82413000D03*
%TO.P,C1,1*%
%TO.N,VDD*%
X150767000Y-82413000D03*
%TD*%
D24*
%TO.P,AE1,1,A*%
%TO.N,Net-(AE1-A)*%
X150030000Y-77130000D03*
D25*
%TO.P,AE1,2*%
%TO.N,N/C*%
X147930000Y-77130000D03*
%TD*%
D26*
%TO.N,Net-(U1-IREF)*%
X160526000Y-88173400D03*
X153935000Y-84040700D03*
%TO.N,Net-(J1-Pin_7)*%
X158735000Y-89726500D03*
%TO.N,Net-(J1-Pin_2)*%
X157124000Y-90670600D03*
%TO.N,Net-(C7-Pad1)*%
X149711000Y-84696600D03*
X156920000Y-81733400D03*
%TO.N,GND*%
X152920000Y-85098100D03*
%TO.N,VDD*%
X154963000Y-83711100D03*
X153258000Y-86124200D03*
%TD*%
D27*
%TO.N,Net-(U1-IREF)*%
X160526000Y-89154000D02*
X160526000Y-88173400D01*
X154492000Y-84598000D02*
X154780000Y-84598000D01*
X153935000Y-84040700D02*
X154492000Y-84598000D01*
X154780000Y-84598000D02*
X154780500Y-84598000D01*
%TO.N,Net-(U1-ANT2)*%
X156718000Y-82966700D02*
X156718000Y-83660500D01*
X156080000Y-82329100D02*
X156718000Y-82966700D01*
X152123000Y-84145900D02*
X152123000Y-85852000D01*
X153814000Y-82455400D02*
X152123000Y-84145900D01*
X155954000Y-82455400D02*
X153814000Y-82455400D01*
X156080000Y-82329100D02*
X155954000Y-82455400D01*
X159384000Y-82019000D02*
X159258000Y-82019000D01*
X159959000Y-81444300D02*
X159384000Y-82019000D01*
X159959000Y-80750700D02*
X159959000Y-81444300D01*
X159159000Y-79950800D02*
X159959000Y-80750700D01*
X156464000Y-79950800D02*
X159159000Y-79950800D01*
X156179000Y-80236400D02*
X156464000Y-79950800D01*
X156179000Y-82230900D02*
X156179000Y-80236400D01*
X156080000Y-82329100D02*
X156179000Y-82230900D01*
%TO.N,Net-(U1-ANT1)*%
X158219000Y-81669300D02*
X158219000Y-81049000D01*
X157218000Y-82670300D02*
X158219000Y-81669300D01*
X157218000Y-83660500D02*
X157218000Y-82670300D01*
X159258000Y-81049000D02*
X158219000Y-81049000D01*
X158219000Y-81049000D02*
X157805000Y-80635000D01*
%TO.N,Net-(J1-Pin_7)*%
X158735000Y-86677400D02*
X158695500Y-86637700D01*
X158735000Y-89726500D02*
X158735000Y-86677400D01*
X158695500Y-86637700D02*
X158656000Y-86598000D01*
X158695200Y-86637700D02*
X158655500Y-86598000D01*
X158695500Y-86637700D02*
X158695200Y-86637700D01*
%TO.N,Net-(J1-Pin_6)*%
X153730000Y-89523500D02*
X155718000Y-87535500D01*
X153730000Y-92964000D02*
X153730000Y-89523500D01*
%TO.N,Net-(J1-Pin_5)*%
X154980000Y-91147900D02*
X154980000Y-92964000D01*
X156218000Y-89909900D02*
X154980000Y-91147900D01*
X156218000Y-87535500D02*
X156218000Y-89909900D01*
%TO.N,Net-(J1-Pin_4)*%
X156230000Y-90537000D02*
X156230000Y-92964000D01*
X156718000Y-90049000D02*
X156230000Y-90537000D01*
X156718000Y-87535500D02*
X156718000Y-90049000D01*
%TO.N,Net-(J1-Pin_3)*%
X157851000Y-87668700D02*
X157718000Y-87535500D01*
X157851000Y-91565900D02*
X157851000Y-87668700D01*
X157480000Y-91937100D02*
X157851000Y-91565900D01*
X157480000Y-92964000D02*
X157480000Y-91937100D01*
%TO.N,Net-(J1-Pin_2)*%
X157218000Y-90576900D02*
X157218000Y-87535500D01*
X157124000Y-90670600D02*
X157218000Y-90576900D01*
%TO.N,Net-(C10-Pad2)*%
X147574000Y-85852000D02*
X147574000Y-83566000D01*
X147828000Y-83312000D02*
X147828000Y-81280000D01*
X147574000Y-83566000D02*
X147828000Y-83312000D01*
X148872000Y-85852000D02*
X147574000Y-85852000D01*
X147574000Y-85852000D02*
X147546000Y-85852000D01*
%TO.N,Net-(C7-Pad1)*%
X149832000Y-84817600D02*
X149711000Y-84696600D01*
X149832000Y-85852000D02*
X149832000Y-84817600D01*
X156835000Y-81647900D02*
X156920000Y-81733400D01*
X156835000Y-80635000D02*
X156835000Y-81647900D01*
%TO.N,Net-(U1-VDD_PA)*%
X151153000Y-84476800D02*
X151153000Y-85852000D01*
X153626000Y-82003500D02*
X151153000Y-84476800D01*
X154517000Y-82003500D02*
X153626000Y-82003500D01*
X155283000Y-81237300D02*
X154517000Y-82003500D01*
X155283000Y-81143000D02*
X155283000Y-81237300D01*
X155283000Y-81143000D02*
X155283000Y-79873000D01*
X155693000Y-79462900D02*
X155283000Y-79873000D01*
X159321000Y-79462900D02*
X155693000Y-79462900D01*
X160417000Y-80558200D02*
X159321000Y-79462900D01*
X160417000Y-81650000D02*
X160417000Y-80558200D01*
X159906000Y-82161200D02*
X160417000Y-81650000D01*
X159906000Y-82398600D02*
X159906000Y-82161200D01*
X158644000Y-83660500D02*
X159906000Y-82398600D01*
X157718000Y-83660500D02*
X158644000Y-83660500D01*
%TO.N,Net-(U1-XC1)*%
X162455000Y-81638300D02*
X161438000Y-81638300D01*
X164338000Y-83521100D02*
X162455000Y-81638300D01*
X164338000Y-84348000D02*
X164338000Y-83521100D01*
X161438000Y-81638300D02*
X160780000Y-82296000D01*
X145979000Y-87586600D02*
X146812000Y-88420000D01*
X145979000Y-77866500D02*
X145979000Y-87586600D01*
X147762000Y-76083300D02*
X145979000Y-77866500D01*
X156592000Y-76083300D02*
X147762000Y-76083300D01*
X161438000Y-80928800D02*
X156592000Y-76083300D01*
X161438000Y-81638300D02*
X161438000Y-80928800D01*
X160780000Y-82473500D02*
X160780000Y-82296000D01*
X158656000Y-84598000D02*
X160780000Y-82473500D01*
X158655500Y-84598000D02*
X158656000Y-84598000D01*
%TO.N,Net-(U1-XC2)*%
X164338000Y-86021100D02*
X164338000Y-86848000D01*
X163233000Y-86021100D02*
X164338000Y-86021100D01*
X161800000Y-84588000D02*
X163233000Y-86021100D01*
X160899000Y-85489000D02*
X161800000Y-84588000D01*
X161800000Y-84588000D02*
X161800000Y-82296000D01*
X160508000Y-85098000D02*
X158656000Y-85098000D01*
X160899000Y-85489000D02*
X160508000Y-85098000D01*
X158656000Y-85098000D02*
X158655500Y-85098000D01*
%TO.N,Net-(U1-DVDD)*%
X154315000Y-86098000D02*
X154780000Y-86098000D01*
X153355000Y-87057500D02*
X154315000Y-86098000D01*
X153355000Y-87851900D02*
X153355000Y-87057500D01*
X152117000Y-89090300D02*
X153355000Y-87851900D01*
X150098000Y-89090300D02*
X152117000Y-89090300D01*
X146812000Y-92376000D02*
X150098000Y-89090300D01*
X146812000Y-92456000D02*
X146812000Y-92376000D01*
X154780000Y-86098000D02*
X154780500Y-86098000D01*
%TO.N,GND*%
X151230000Y-92964000D02*
X151230000Y-91937100D01*
X146193000Y-89999300D02*
X146812000Y-89380000D01*
X146193000Y-92877900D02*
X146193000Y-89999300D01*
X146438000Y-93122900D02*
X146193000Y-92877900D01*
X147122000Y-93122900D02*
X146438000Y-93122900D01*
X147772000Y-92473000D02*
X147122000Y-93122900D01*
X147772000Y-92456000D02*
X147772000Y-92473000D01*
X148291000Y-91937100D02*
X151230000Y-91937100D01*
X147772000Y-92456000D02*
X148291000Y-91937100D01*
X161546000Y-92896400D02*
X161546000Y-89154000D01*
X160427000Y-94015800D02*
X161546000Y-92896400D01*
X151255000Y-94015800D02*
X160427000Y-94015800D01*
X151230000Y-93990900D02*
X151255000Y-94015800D01*
X151230000Y-92964000D02*
X151230000Y-93990900D01*
X161546000Y-87096000D02*
X160899000Y-86449000D01*
X161546000Y-89154000D02*
X161546000Y-87096000D01*
X146586000Y-83594000D02*
X146586000Y-85852000D01*
X146614000Y-83566000D02*
X146586000Y-83594000D01*
X146586000Y-86543000D02*
X146586000Y-85852000D01*
X147573000Y-87529900D02*
X146586000Y-86543000D01*
X147573000Y-88638400D02*
X147573000Y-87529900D01*
X146831000Y-89380000D02*
X147573000Y-88638400D01*
X146812000Y-89380000D02*
X146831000Y-89380000D01*
X152235000Y-88059200D02*
X152235000Y-88001000D01*
X151656000Y-88638400D02*
X152235000Y-88059200D01*
X147573000Y-88638400D02*
X151656000Y-88638400D01*
X152997000Y-81143000D02*
X154323000Y-81143000D01*
X151727000Y-82413000D02*
X152997000Y-81143000D01*
X149380000Y-80264000D02*
X148800000Y-79684300D01*
X146614000Y-80497900D02*
X146614000Y-83566000D01*
X147428000Y-79684300D02*
X146614000Y-80497900D01*
X148800000Y-79684300D02*
X147428000Y-79684300D01*
X154323000Y-79873000D02*
X154323000Y-81143000D01*
X148800000Y-77397400D02*
X148800000Y-79684300D01*
X149645000Y-76553100D02*
X148800000Y-77397400D01*
X151003000Y-76553100D02*
X149645000Y-76553100D01*
X154323000Y-79873000D02*
X151003000Y-76553100D01*
X153158000Y-85098100D02*
X153158000Y-85098000D01*
X152920000Y-85098100D02*
X153158000Y-85098100D01*
X156218000Y-83120700D02*
X156218000Y-83660500D01*
X156005000Y-82907300D02*
X156218000Y-83120700D01*
X154001000Y-82907300D02*
X156005000Y-82907300D01*
X153158000Y-83749500D02*
X154001000Y-82907300D01*
X153158000Y-85098000D02*
X153158000Y-83749500D01*
X159708000Y-85598000D02*
X158656000Y-85598000D01*
X160559000Y-86449000D02*
X159708000Y-85598000D01*
X160899000Y-86449000D02*
X160559000Y-86449000D01*
X158656000Y-85598000D02*
X158655500Y-85598000D01*
X154780000Y-85098000D02*
X153158000Y-85098000D01*
X154780000Y-85098000D02*
X154780500Y-85098000D01*
X154780000Y-87449800D02*
X154780000Y-87023900D01*
X151230000Y-91000300D02*
X154780000Y-87449800D01*
X151230000Y-91937100D02*
X151230000Y-91000300D01*
X154780000Y-87023900D02*
X154780000Y-86598000D01*
X154780500Y-87023400D02*
X154780500Y-86598000D01*
X154780000Y-87023900D02*
X154780500Y-87023400D01*
%TO.N,VDD*%
X155667000Y-83711100D02*
X155718000Y-83660500D01*
X154963000Y-83711100D02*
X155667000Y-83711100D01*
X151275000Y-86558200D02*
X151275000Y-88001000D01*
X152824000Y-86558200D02*
X151275000Y-86558200D01*
X153258000Y-86124200D02*
X152824000Y-86558200D01*
X150485000Y-82695000D02*
X150767000Y-82413000D01*
X150485000Y-86211600D02*
X150485000Y-82695000D01*
X150832000Y-86558200D02*
X150485000Y-86211600D01*
X151275000Y-86558200D02*
X150832000Y-86558200D01*
X159119000Y-86098000D02*
X158656000Y-86098000D01*
X159618000Y-86597200D02*
X159119000Y-86098000D01*
X159618000Y-92602300D02*
X159618000Y-86597200D01*
X159980000Y-92964000D02*
X159618000Y-92602300D01*
X158656000Y-86098000D02*
X158655500Y-86098000D01*
X153784000Y-85598000D02*
X153258000Y-86124200D01*
X154780000Y-85598000D02*
X153784000Y-85598000D01*
X154780000Y-85598000D02*
X154780500Y-85598000D01*
%TO.N,Net-(AE1-A)*%
X150340000Y-78016900D02*
X150340000Y-80264000D01*
X150030000Y-77706900D02*
X150340000Y-78016900D01*
X150030000Y-77130000D02*
X150030000Y-77706900D01*
X148246000Y-80310000D02*
X147828000Y-80310000D01*
X148878000Y-80941300D02*
X148246000Y-80310000D01*
X149716000Y-80941300D02*
X148878000Y-80941300D01*
X150340000Y-80317600D02*
X149716000Y-80941300D01*
X150340000Y-80264000D02*
X150340000Y-80317600D01*
%TD*%
M02*
