%TF.GenerationSoftware,KiCad,Pcbnew,7.0.7*%
%TF.CreationDate,2024-12-08T13:35:24-04:00*%
%TF.ProjectId,Tarea Final,54617265-6120-4466-996e-616c2e6b6963,rev?*%
%TF.SameCoordinates,Original*%
%TF.FileFunction,Copper,L2,Bot*%
%TF.FilePolarity,Positive*%
%FSLAX46Y46*%
G04 Gerber Fmt 4.6, Leading zero omitted, Abs format (unit mm)*
G04 Created by KiCad (PCBNEW 7.0.7) date 2024-12-08 13:35:24*
%MOMM*%
%LPD*%
G01*
G04 APERTURE LIST*
G04 Aperture macros list*
%AMRoundRect*
0 Rectangle with rounded corners*
0 $1 Rounding radius*
0 $2 $3 $4 $5 $6 $7 $8 $9 X,Y pos of 4 corners*
0 Add a 4 corners polygon primitive as box body*
4,1,4,$2,$3,$4,$5,$6,$7,$8,$9,$2,$3,0*
0 Add four circle primitives for the rounded corners*
1,1,$1+$1,$2,$3*
1,1,$1+$1,$4,$5*
1,1,$1+$1,$6,$7*
1,1,$1+$1,$8,$9*
0 Add four rect primitives between the rounded corners*
20,1,$1+$1,$2,$3,$4,$5,0*
20,1,$1+$1,$4,$5,$6,$7,0*
20,1,$1+$1,$6,$7,$8,$9,0*
20,1,$1+$1,$8,$9,$2,$3,0*%
G04 Aperture macros list end*
%TA.AperFunction,ComponentPad*%
%ADD10O,0.900000X1.400000*%
%TD*%
%TA.AperFunction,ComponentPad*%
%ADD11RoundRect,0.225000X0.225000X0.475000X-0.225000X0.475000X-0.225000X-0.475000X0.225000X-0.475000X0*%
%TD*%
%TA.AperFunction,ComponentPad*%
%ADD12R,0.900000X0.500000*%
%TD*%
%TA.AperFunction,ViaPad*%
%ADD13C,0.800000*%
%TD*%
%TA.AperFunction,Conductor*%
%ADD14C,0.250000*%
%TD*%
G04 APERTURE END LIST*
D10*
%TO.P,J1,8,Pin_8*%
%TO.N,GND*%
X151230000Y-92964000D03*
%TO.P,J1,7,Pin_7*%
%TO.N,Net-(J1-Pin_7)*%
X152480000Y-92964000D03*
%TO.P,J1,6,Pin_6*%
%TO.N,Net-(J1-Pin_6)*%
X153730000Y-92964000D03*
%TO.P,J1,5,Pin_5*%
%TO.N,Net-(J1-Pin_5)*%
X154980000Y-92964000D03*
%TO.P,J1,4,Pin_4*%
%TO.N,Net-(J1-Pin_4)*%
X156230000Y-92964000D03*
%TO.P,J1,3,Pin_3*%
%TO.N,Net-(J1-Pin_3)*%
X157480000Y-92964000D03*
%TO.P,J1,2,Pin_2*%
%TO.N,Net-(J1-Pin_2)*%
X158730000Y-92964000D03*
D11*
%TO.P,J1,1,Pin_1*%
%TO.N,VDD*%
X159980000Y-92964000D03*
%TD*%
D12*
%TO.P,AE1,2*%
%TO.N,N/C*%
X147930000Y-77130000D03*
%TD*%
D13*
%TO.N,Net-(U1-IREF)*%
X160526000Y-88173400D03*
X153935000Y-84040700D03*
%TO.N,Net-(J1-Pin_7)*%
X158735000Y-89726500D03*
%TO.N,Net-(J1-Pin_2)*%
X157124000Y-90670600D03*
%TO.N,Net-(C7-Pad1)*%
X149711000Y-84696600D03*
X156920000Y-81733400D03*
%TO.N,GND*%
X152920000Y-85098100D03*
%TO.N,VDD*%
X154963000Y-83711100D03*
X153258000Y-86124200D03*
%TD*%
D14*
%TO.N,Net-(U1-IREF)*%
X158068000Y-88173400D02*
X160526000Y-88173400D01*
X153935000Y-84040700D02*
X158068000Y-88173400D01*
%TO.N,Net-(J1-Pin_7)*%
X160798000Y-91789200D02*
X158735000Y-89726500D01*
X160798000Y-93628200D02*
X160798000Y-91789200D01*
X160422000Y-94003700D02*
X160798000Y-93628200D01*
X152493000Y-94003700D02*
X160422000Y-94003700D01*
X152480000Y-93990900D02*
X152493000Y-94003700D01*
X152480000Y-92964000D02*
X152480000Y-93990900D01*
%TO.N,Net-(J1-Pin_2)*%
X158391000Y-91937100D02*
X157124000Y-90670600D01*
X158730000Y-91937100D02*
X158391000Y-91937100D01*
X158730000Y-92964000D02*
X158730000Y-91937100D01*
%TO.N,Net-(C7-Pad1)*%
X152674000Y-81733400D02*
X156920000Y-81733400D01*
X149711000Y-84696600D02*
X152674000Y-81733400D01*
%TO.N,GND*%
X151230000Y-86788100D02*
X152920000Y-85098100D01*
X151230000Y-92964000D02*
X151230000Y-86788100D01*
%TO.N,VDD*%
X153606000Y-86124200D02*
X153258000Y-86124200D01*
X159980000Y-92498300D02*
X153606000Y-86124200D01*
X159980000Y-92964000D02*
X159980000Y-92498300D01*
X154566000Y-83313800D02*
X154963000Y-83711100D01*
X153557000Y-83313800D02*
X154566000Y-83313800D01*
X153194000Y-83676500D02*
X153557000Y-83313800D01*
X153194000Y-84344300D02*
X153194000Y-83676500D01*
X153647000Y-84797000D02*
X153194000Y-84344300D01*
X153647000Y-85735500D02*
X153647000Y-84797000D01*
X153258000Y-86124200D02*
X153647000Y-85735500D01*
%TD*%
M02*
