%TF.GenerationSoftware,KiCad,Pcbnew,7.0.7*%
%TF.CreationDate,2024-12-08T13:35:24-04:00*%
%TF.ProjectId,Tarea Final,54617265-6120-4466-996e-616c2e6b6963,rev?*%
%TF.SameCoordinates,Original*%
%TF.FileFunction,Paste,Top*%
%TF.FilePolarity,Positive*%
%FSLAX46Y46*%
G04 Gerber Fmt 4.6, Leading zero omitted, Abs format (unit mm)*
G04 Created by KiCad (PCBNEW 7.0.7) date 2024-12-08 13:35:24*
%MOMM*%
%LPD*%
G01*
G04 APERTURE LIST*
G04 Aperture macros list*
%AMRoundRect*
0 Rectangle with rounded corners*
0 $1 Rounding radius*
0 $2 $3 $4 $5 $6 $7 $8 $9 X,Y pos of 4 corners*
0 Add a 4 corners polygon primitive as box body*
4,1,4,$2,$3,$4,$5,$6,$7,$8,$9,$2,$3,0*
0 Add four circle primitives for the rounded corners*
1,1,$1+$1,$2,$3*
1,1,$1+$1,$4,$5*
1,1,$1+$1,$6,$7*
1,1,$1+$1,$8,$9*
0 Add four rect primitives between the rounded corners*
20,1,$1+$1,$2,$3,$4,$5,0*
20,1,$1+$1,$4,$5,$6,$7,0*
20,1,$1+$1,$6,$7,$8,$9,0*
20,1,$1+$1,$8,$9,$2,$3,0*%
G04 Aperture macros list end*
%ADD10R,1.800000X1.000000*%
%ADD11RoundRect,0.062500X0.350000X-0.062500X0.350000X0.062500X-0.350000X0.062500X-0.350000X-0.062500X0*%
%ADD12RoundRect,0.062500X0.062500X-0.350000X0.062500X0.350000X-0.062500X0.350000X-0.062500X-0.350000X0*%
%ADD13RoundRect,0.250000X0.255000X-0.255000X0.255000X0.255000X-0.255000X0.255000X-0.255000X-0.255000X0*%
%ADD14RoundRect,0.135000X0.135000X0.185000X-0.135000X0.185000X-0.135000X-0.185000X0.135000X-0.185000X0*%
%ADD15RoundRect,0.135000X-0.135000X-0.185000X0.135000X-0.185000X0.135000X0.185000X-0.135000X0.185000X0*%
%ADD16RoundRect,0.147500X0.172500X-0.147500X0.172500X0.147500X-0.172500X0.147500X-0.172500X-0.147500X0*%
%ADD17RoundRect,0.147500X0.147500X0.172500X-0.147500X0.172500X-0.147500X-0.172500X0.147500X-0.172500X0*%
%ADD18RoundRect,0.147500X-0.172500X0.147500X-0.172500X-0.147500X0.172500X-0.147500X0.172500X0.147500X0*%
%ADD19RoundRect,0.140000X-0.140000X-0.170000X0.140000X-0.170000X0.140000X0.170000X-0.140000X0.170000X0*%
%ADD20RoundRect,0.140000X0.140000X0.170000X-0.140000X0.170000X-0.140000X-0.170000X0.140000X-0.170000X0*%
%ADD21RoundRect,0.140000X-0.170000X0.140000X-0.170000X-0.140000X0.170000X-0.140000X0.170000X0.140000X0*%
G04 APERTURE END LIST*
D10*
%TO.C,Y1*%
X164338000Y-84348000D03*
X164338000Y-86848000D03*
%TD*%
D11*
%TO.C,U1*%
X154780500Y-86598000D03*
X154780500Y-86098000D03*
X154780500Y-85598000D03*
X154780500Y-85098000D03*
X154780500Y-84598000D03*
D12*
X155718000Y-83660500D03*
X156218000Y-83660500D03*
X156718000Y-83660500D03*
X157218000Y-83660500D03*
X157718000Y-83660500D03*
D11*
X158655500Y-84598000D03*
X158655500Y-85098000D03*
X158655500Y-85598000D03*
X158655500Y-86098000D03*
X158655500Y-86598000D03*
D12*
X157718000Y-87535500D03*
X157218000Y-87535500D03*
X156718000Y-87535500D03*
X156218000Y-87535500D03*
X155718000Y-87535500D03*
D13*
X157343000Y-86223000D03*
X156093000Y-86223000D03*
X156093000Y-84973000D03*
X157343000Y-84973000D03*
%TD*%
D14*
%TO.C,R2*%
X160780000Y-82296000D03*
X161800000Y-82296000D03*
%TD*%
D15*
%TO.C,R1*%
X161546000Y-89154000D03*
X160526000Y-89154000D03*
%TD*%
D16*
%TO.C,L4*%
X147828000Y-81280000D03*
X147828000Y-80310000D03*
%TD*%
D17*
%TO.C,L3*%
X151153000Y-85852000D03*
X152123000Y-85852000D03*
%TD*%
%TO.C,L2*%
X156835000Y-80635000D03*
X157805000Y-80635000D03*
%TD*%
D18*
%TO.C,L1*%
X159258000Y-82019000D03*
X159258000Y-81049000D03*
%TD*%
D19*
%TO.C,C11*%
X150340000Y-80264000D03*
X149380000Y-80264000D03*
%TD*%
%TO.C,C10*%
X147574000Y-83566000D03*
X146614000Y-83566000D03*
%TD*%
%TO.C,C9*%
X147546000Y-85852000D03*
X146586000Y-85852000D03*
%TD*%
D20*
%TO.C,C8*%
X154323000Y-81143000D03*
X155283000Y-81143000D03*
%TD*%
%TO.C,C7*%
X148872000Y-85852000D03*
X149832000Y-85852000D03*
%TD*%
%TO.C,C6*%
X154323000Y-79873000D03*
X155283000Y-79873000D03*
%TD*%
D21*
%TO.C,C5*%
X146812000Y-89380000D03*
X146812000Y-88420000D03*
%TD*%
%TO.C,C4*%
X160899000Y-86449000D03*
X160899000Y-85489000D03*
%TD*%
D19*
%TO.C,C3*%
X147772000Y-92456000D03*
X146812000Y-92456000D03*
%TD*%
%TO.C,C2*%
X152235000Y-88001000D03*
X151275000Y-88001000D03*
%TD*%
%TO.C,C1*%
X151727000Y-82413000D03*
X150767000Y-82413000D03*
%TD*%
M02*
