%TF.GenerationSoftware,KiCad,Pcbnew,7.0.7*%
%TF.CreationDate,2024-12-08T13:35:24-04:00*%
%TF.ProjectId,Tarea Final,54617265-6120-4466-996e-616c2e6b6963,rev?*%
%TF.SameCoordinates,Original*%
%TF.FileFunction,Legend,Top*%
%TF.FilePolarity,Positive*%
%FSLAX46Y46*%
G04 Gerber Fmt 4.6, Leading zero omitted, Abs format (unit mm)*
G04 Created by KiCad (PCBNEW 7.0.7) date 2024-12-08 13:35:24*
%MOMM*%
%LPD*%
G01*
G04 APERTURE LIST*
%ADD10C,0.150000*%
%ADD11C,0.120000*%
G04 APERTURE END LIST*
D10*
X166316628Y-86074190D02*
X166792819Y-86074190D01*
X165792819Y-86407523D02*
X166316628Y-86074190D01*
X166316628Y-86074190D02*
X165792819Y-85740857D01*
X166792819Y-84883714D02*
X166792819Y-85455142D01*
X166792819Y-85169428D02*
X165792819Y-85169428D01*
X165792819Y-85169428D02*
X165935676Y-85264666D01*
X165935676Y-85264666D02*
X166030914Y-85359904D01*
X166030914Y-85359904D02*
X166078533Y-85455142D01*
X152872819Y-86359904D02*
X153682342Y-86359904D01*
X153682342Y-86359904D02*
X153777580Y-86312285D01*
X153777580Y-86312285D02*
X153825200Y-86264666D01*
X153825200Y-86264666D02*
X153872819Y-86169428D01*
X153872819Y-86169428D02*
X153872819Y-85978952D01*
X153872819Y-85978952D02*
X153825200Y-85883714D01*
X153825200Y-85883714D02*
X153777580Y-85836095D01*
X153777580Y-85836095D02*
X153682342Y-85788476D01*
X153682342Y-85788476D02*
X152872819Y-85788476D01*
X153872819Y-84788476D02*
X153872819Y-85359904D01*
X153872819Y-85074190D02*
X152872819Y-85074190D01*
X152872819Y-85074190D02*
X153015676Y-85169428D01*
X153015676Y-85169428D02*
X153110914Y-85264666D01*
X153110914Y-85264666D02*
X153158533Y-85359904D01*
X161123333Y-84084319D02*
X160790000Y-83608128D01*
X160551905Y-84084319D02*
X160551905Y-83084319D01*
X160551905Y-83084319D02*
X160932857Y-83084319D01*
X160932857Y-83084319D02*
X161028095Y-83131938D01*
X161028095Y-83131938D02*
X161075714Y-83179557D01*
X161075714Y-83179557D02*
X161123333Y-83274795D01*
X161123333Y-83274795D02*
X161123333Y-83417652D01*
X161123333Y-83417652D02*
X161075714Y-83512890D01*
X161075714Y-83512890D02*
X161028095Y-83560509D01*
X161028095Y-83560509D02*
X160932857Y-83608128D01*
X160932857Y-83608128D02*
X160551905Y-83608128D01*
X161504286Y-83179557D02*
X161551905Y-83131938D01*
X161551905Y-83131938D02*
X161647143Y-83084319D01*
X161647143Y-83084319D02*
X161885238Y-83084319D01*
X161885238Y-83084319D02*
X161980476Y-83131938D01*
X161980476Y-83131938D02*
X162028095Y-83179557D01*
X162028095Y-83179557D02*
X162075714Y-83274795D01*
X162075714Y-83274795D02*
X162075714Y-83370033D01*
X162075714Y-83370033D02*
X162028095Y-83512890D01*
X162028095Y-83512890D02*
X161456667Y-84084319D01*
X161456667Y-84084319D02*
X162075714Y-84084319D01*
X160869333Y-88275319D02*
X160536000Y-87799128D01*
X160297905Y-88275319D02*
X160297905Y-87275319D01*
X160297905Y-87275319D02*
X160678857Y-87275319D01*
X160678857Y-87275319D02*
X160774095Y-87322938D01*
X160774095Y-87322938D02*
X160821714Y-87370557D01*
X160821714Y-87370557D02*
X160869333Y-87465795D01*
X160869333Y-87465795D02*
X160869333Y-87608652D01*
X160869333Y-87608652D02*
X160821714Y-87703890D01*
X160821714Y-87703890D02*
X160774095Y-87751509D01*
X160774095Y-87751509D02*
X160678857Y-87799128D01*
X160678857Y-87799128D02*
X160297905Y-87799128D01*
X161821714Y-88275319D02*
X161250286Y-88275319D01*
X161536000Y-88275319D02*
X161536000Y-87275319D01*
X161536000Y-87275319D02*
X161440762Y-87418176D01*
X161440762Y-87418176D02*
X161345524Y-87513414D01*
X161345524Y-87513414D02*
X161250286Y-87561033D01*
X147112819Y-80961666D02*
X147112819Y-81437856D01*
X147112819Y-81437856D02*
X146112819Y-81437856D01*
X146446152Y-80199761D02*
X147112819Y-80199761D01*
X146065200Y-80437856D02*
X146779485Y-80675951D01*
X146779485Y-80675951D02*
X146779485Y-80056904D01*
X151471333Y-87476819D02*
X150995143Y-87476819D01*
X150995143Y-87476819D02*
X150995143Y-86476819D01*
X151709429Y-86476819D02*
X152328476Y-86476819D01*
X152328476Y-86476819D02*
X151995143Y-86857771D01*
X151995143Y-86857771D02*
X152138000Y-86857771D01*
X152138000Y-86857771D02*
X152233238Y-86905390D01*
X152233238Y-86905390D02*
X152280857Y-86953009D01*
X152280857Y-86953009D02*
X152328476Y-87048247D01*
X152328476Y-87048247D02*
X152328476Y-87286342D01*
X152328476Y-87286342D02*
X152280857Y-87381580D01*
X152280857Y-87381580D02*
X152233238Y-87429200D01*
X152233238Y-87429200D02*
X152138000Y-87476819D01*
X152138000Y-87476819D02*
X151852286Y-87476819D01*
X151852286Y-87476819D02*
X151757048Y-87429200D01*
X151757048Y-87429200D02*
X151709429Y-87381580D01*
X157153333Y-82259819D02*
X156677143Y-82259819D01*
X156677143Y-82259819D02*
X156677143Y-81259819D01*
X157439048Y-81355057D02*
X157486667Y-81307438D01*
X157486667Y-81307438D02*
X157581905Y-81259819D01*
X157581905Y-81259819D02*
X157820000Y-81259819D01*
X157820000Y-81259819D02*
X157915238Y-81307438D01*
X157915238Y-81307438D02*
X157962857Y-81355057D01*
X157962857Y-81355057D02*
X158010476Y-81450295D01*
X158010476Y-81450295D02*
X158010476Y-81545533D01*
X158010476Y-81545533D02*
X157962857Y-81688390D01*
X157962857Y-81688390D02*
X157391429Y-82259819D01*
X157391429Y-82259819D02*
X158010476Y-82259819D01*
X160882819Y-81700666D02*
X160882819Y-82176856D01*
X160882819Y-82176856D02*
X159882819Y-82176856D01*
X160882819Y-80843523D02*
X160882819Y-81414951D01*
X160882819Y-81129237D02*
X159882819Y-81129237D01*
X159882819Y-81129237D02*
X160025676Y-81224475D01*
X160025676Y-81224475D02*
X160120914Y-81319713D01*
X160120914Y-81319713D02*
X160168533Y-81414951D01*
X155622666Y-95974819D02*
X155622666Y-96689104D01*
X155622666Y-96689104D02*
X155575047Y-96831961D01*
X155575047Y-96831961D02*
X155479809Y-96927200D01*
X155479809Y-96927200D02*
X155336952Y-96974819D01*
X155336952Y-96974819D02*
X155241714Y-96974819D01*
X156622666Y-96974819D02*
X156051238Y-96974819D01*
X156336952Y-96974819D02*
X156336952Y-95974819D01*
X156336952Y-95974819D02*
X156241714Y-96117676D01*
X156241714Y-96117676D02*
X156146476Y-96212914D01*
X156146476Y-96212914D02*
X156051238Y-96260533D01*
X149217142Y-79463580D02*
X149169523Y-79511200D01*
X149169523Y-79511200D02*
X149026666Y-79558819D01*
X149026666Y-79558819D02*
X148931428Y-79558819D01*
X148931428Y-79558819D02*
X148788571Y-79511200D01*
X148788571Y-79511200D02*
X148693333Y-79415961D01*
X148693333Y-79415961D02*
X148645714Y-79320723D01*
X148645714Y-79320723D02*
X148598095Y-79130247D01*
X148598095Y-79130247D02*
X148598095Y-78987390D01*
X148598095Y-78987390D02*
X148645714Y-78796914D01*
X148645714Y-78796914D02*
X148693333Y-78701676D01*
X148693333Y-78701676D02*
X148788571Y-78606438D01*
X148788571Y-78606438D02*
X148931428Y-78558819D01*
X148931428Y-78558819D02*
X149026666Y-78558819D01*
X149026666Y-78558819D02*
X149169523Y-78606438D01*
X149169523Y-78606438D02*
X149217142Y-78654057D01*
X150169523Y-79558819D02*
X149598095Y-79558819D01*
X149883809Y-79558819D02*
X149883809Y-78558819D01*
X149883809Y-78558819D02*
X149788571Y-78701676D01*
X149788571Y-78701676D02*
X149693333Y-78796914D01*
X149693333Y-78796914D02*
X149598095Y-78844533D01*
X151121904Y-79558819D02*
X150550476Y-79558819D01*
X150836190Y-79558819D02*
X150836190Y-78558819D01*
X150836190Y-78558819D02*
X150740952Y-78701676D01*
X150740952Y-78701676D02*
X150645714Y-78796914D01*
X150645714Y-78796914D02*
X150550476Y-78844533D01*
X146451142Y-82765580D02*
X146403523Y-82813200D01*
X146403523Y-82813200D02*
X146260666Y-82860819D01*
X146260666Y-82860819D02*
X146165428Y-82860819D01*
X146165428Y-82860819D02*
X146022571Y-82813200D01*
X146022571Y-82813200D02*
X145927333Y-82717961D01*
X145927333Y-82717961D02*
X145879714Y-82622723D01*
X145879714Y-82622723D02*
X145832095Y-82432247D01*
X145832095Y-82432247D02*
X145832095Y-82289390D01*
X145832095Y-82289390D02*
X145879714Y-82098914D01*
X145879714Y-82098914D02*
X145927333Y-82003676D01*
X145927333Y-82003676D02*
X146022571Y-81908438D01*
X146022571Y-81908438D02*
X146165428Y-81860819D01*
X146165428Y-81860819D02*
X146260666Y-81860819D01*
X146260666Y-81860819D02*
X146403523Y-81908438D01*
X146403523Y-81908438D02*
X146451142Y-81956057D01*
X147403523Y-82860819D02*
X146832095Y-82860819D01*
X147117809Y-82860819D02*
X147117809Y-81860819D01*
X147117809Y-81860819D02*
X147022571Y-82003676D01*
X147022571Y-82003676D02*
X146927333Y-82098914D01*
X146927333Y-82098914D02*
X146832095Y-82146533D01*
X148022571Y-81860819D02*
X148117809Y-81860819D01*
X148117809Y-81860819D02*
X148213047Y-81908438D01*
X148213047Y-81908438D02*
X148260666Y-81956057D01*
X148260666Y-81956057D02*
X148308285Y-82051295D01*
X148308285Y-82051295D02*
X148355904Y-82241771D01*
X148355904Y-82241771D02*
X148355904Y-82479866D01*
X148355904Y-82479866D02*
X148308285Y-82670342D01*
X148308285Y-82670342D02*
X148260666Y-82765580D01*
X148260666Y-82765580D02*
X148213047Y-82813200D01*
X148213047Y-82813200D02*
X148117809Y-82860819D01*
X148117809Y-82860819D02*
X148022571Y-82860819D01*
X148022571Y-82860819D02*
X147927333Y-82813200D01*
X147927333Y-82813200D02*
X147879714Y-82765580D01*
X147879714Y-82765580D02*
X147832095Y-82670342D01*
X147832095Y-82670342D02*
X147784476Y-82479866D01*
X147784476Y-82479866D02*
X147784476Y-82241771D01*
X147784476Y-82241771D02*
X147832095Y-82051295D01*
X147832095Y-82051295D02*
X147879714Y-81956057D01*
X147879714Y-81956057D02*
X147927333Y-81908438D01*
X147927333Y-81908438D02*
X148022571Y-81860819D01*
X146899333Y-85051580D02*
X146851714Y-85099200D01*
X146851714Y-85099200D02*
X146708857Y-85146819D01*
X146708857Y-85146819D02*
X146613619Y-85146819D01*
X146613619Y-85146819D02*
X146470762Y-85099200D01*
X146470762Y-85099200D02*
X146375524Y-85003961D01*
X146375524Y-85003961D02*
X146327905Y-84908723D01*
X146327905Y-84908723D02*
X146280286Y-84718247D01*
X146280286Y-84718247D02*
X146280286Y-84575390D01*
X146280286Y-84575390D02*
X146327905Y-84384914D01*
X146327905Y-84384914D02*
X146375524Y-84289676D01*
X146375524Y-84289676D02*
X146470762Y-84194438D01*
X146470762Y-84194438D02*
X146613619Y-84146819D01*
X146613619Y-84146819D02*
X146708857Y-84146819D01*
X146708857Y-84146819D02*
X146851714Y-84194438D01*
X146851714Y-84194438D02*
X146899333Y-84242057D01*
X147375524Y-85146819D02*
X147566000Y-85146819D01*
X147566000Y-85146819D02*
X147661238Y-85099200D01*
X147661238Y-85099200D02*
X147708857Y-85051580D01*
X147708857Y-85051580D02*
X147804095Y-84908723D01*
X147804095Y-84908723D02*
X147851714Y-84718247D01*
X147851714Y-84718247D02*
X147851714Y-84337295D01*
X147851714Y-84337295D02*
X147804095Y-84242057D01*
X147804095Y-84242057D02*
X147756476Y-84194438D01*
X147756476Y-84194438D02*
X147661238Y-84146819D01*
X147661238Y-84146819D02*
X147470762Y-84146819D01*
X147470762Y-84146819D02*
X147375524Y-84194438D01*
X147375524Y-84194438D02*
X147327905Y-84242057D01*
X147327905Y-84242057D02*
X147280286Y-84337295D01*
X147280286Y-84337295D02*
X147280286Y-84575390D01*
X147280286Y-84575390D02*
X147327905Y-84670628D01*
X147327905Y-84670628D02*
X147375524Y-84718247D01*
X147375524Y-84718247D02*
X147470762Y-84765866D01*
X147470762Y-84765866D02*
X147661238Y-84765866D01*
X147661238Y-84765866D02*
X147756476Y-84718247D01*
X147756476Y-84718247D02*
X147804095Y-84670628D01*
X147804095Y-84670628D02*
X147851714Y-84575390D01*
X154636333Y-82662580D02*
X154588714Y-82710200D01*
X154588714Y-82710200D02*
X154445857Y-82757819D01*
X154445857Y-82757819D02*
X154350619Y-82757819D01*
X154350619Y-82757819D02*
X154207762Y-82710200D01*
X154207762Y-82710200D02*
X154112524Y-82614961D01*
X154112524Y-82614961D02*
X154064905Y-82519723D01*
X154064905Y-82519723D02*
X154017286Y-82329247D01*
X154017286Y-82329247D02*
X154017286Y-82186390D01*
X154017286Y-82186390D02*
X154064905Y-81995914D01*
X154064905Y-81995914D02*
X154112524Y-81900676D01*
X154112524Y-81900676D02*
X154207762Y-81805438D01*
X154207762Y-81805438D02*
X154350619Y-81757819D01*
X154350619Y-81757819D02*
X154445857Y-81757819D01*
X154445857Y-81757819D02*
X154588714Y-81805438D01*
X154588714Y-81805438D02*
X154636333Y-81853057D01*
X155207762Y-82186390D02*
X155112524Y-82138771D01*
X155112524Y-82138771D02*
X155064905Y-82091152D01*
X155064905Y-82091152D02*
X155017286Y-81995914D01*
X155017286Y-81995914D02*
X155017286Y-81948295D01*
X155017286Y-81948295D02*
X155064905Y-81853057D01*
X155064905Y-81853057D02*
X155112524Y-81805438D01*
X155112524Y-81805438D02*
X155207762Y-81757819D01*
X155207762Y-81757819D02*
X155398238Y-81757819D01*
X155398238Y-81757819D02*
X155493476Y-81805438D01*
X155493476Y-81805438D02*
X155541095Y-81853057D01*
X155541095Y-81853057D02*
X155588714Y-81948295D01*
X155588714Y-81948295D02*
X155588714Y-81995914D01*
X155588714Y-81995914D02*
X155541095Y-82091152D01*
X155541095Y-82091152D02*
X155493476Y-82138771D01*
X155493476Y-82138771D02*
X155398238Y-82186390D01*
X155398238Y-82186390D02*
X155207762Y-82186390D01*
X155207762Y-82186390D02*
X155112524Y-82234009D01*
X155112524Y-82234009D02*
X155064905Y-82281628D01*
X155064905Y-82281628D02*
X155017286Y-82376866D01*
X155017286Y-82376866D02*
X155017286Y-82567342D01*
X155017286Y-82567342D02*
X155064905Y-82662580D01*
X155064905Y-82662580D02*
X155112524Y-82710200D01*
X155112524Y-82710200D02*
X155207762Y-82757819D01*
X155207762Y-82757819D02*
X155398238Y-82757819D01*
X155398238Y-82757819D02*
X155493476Y-82710200D01*
X155493476Y-82710200D02*
X155541095Y-82662580D01*
X155541095Y-82662580D02*
X155588714Y-82567342D01*
X155588714Y-82567342D02*
X155588714Y-82376866D01*
X155588714Y-82376866D02*
X155541095Y-82281628D01*
X155541095Y-82281628D02*
X155493476Y-82234009D01*
X155493476Y-82234009D02*
X155398238Y-82186390D01*
X149185333Y-87371580D02*
X149137714Y-87419200D01*
X149137714Y-87419200D02*
X148994857Y-87466819D01*
X148994857Y-87466819D02*
X148899619Y-87466819D01*
X148899619Y-87466819D02*
X148756762Y-87419200D01*
X148756762Y-87419200D02*
X148661524Y-87323961D01*
X148661524Y-87323961D02*
X148613905Y-87228723D01*
X148613905Y-87228723D02*
X148566286Y-87038247D01*
X148566286Y-87038247D02*
X148566286Y-86895390D01*
X148566286Y-86895390D02*
X148613905Y-86704914D01*
X148613905Y-86704914D02*
X148661524Y-86609676D01*
X148661524Y-86609676D02*
X148756762Y-86514438D01*
X148756762Y-86514438D02*
X148899619Y-86466819D01*
X148899619Y-86466819D02*
X148994857Y-86466819D01*
X148994857Y-86466819D02*
X149137714Y-86514438D01*
X149137714Y-86514438D02*
X149185333Y-86562057D01*
X149518667Y-86466819D02*
X150185333Y-86466819D01*
X150185333Y-86466819D02*
X149756762Y-87466819D01*
X154636333Y-81392580D02*
X154588714Y-81440200D01*
X154588714Y-81440200D02*
X154445857Y-81487819D01*
X154445857Y-81487819D02*
X154350619Y-81487819D01*
X154350619Y-81487819D02*
X154207762Y-81440200D01*
X154207762Y-81440200D02*
X154112524Y-81344961D01*
X154112524Y-81344961D02*
X154064905Y-81249723D01*
X154064905Y-81249723D02*
X154017286Y-81059247D01*
X154017286Y-81059247D02*
X154017286Y-80916390D01*
X154017286Y-80916390D02*
X154064905Y-80725914D01*
X154064905Y-80725914D02*
X154112524Y-80630676D01*
X154112524Y-80630676D02*
X154207762Y-80535438D01*
X154207762Y-80535438D02*
X154350619Y-80487819D01*
X154350619Y-80487819D02*
X154445857Y-80487819D01*
X154445857Y-80487819D02*
X154588714Y-80535438D01*
X154588714Y-80535438D02*
X154636333Y-80583057D01*
X155493476Y-80487819D02*
X155303000Y-80487819D01*
X155303000Y-80487819D02*
X155207762Y-80535438D01*
X155207762Y-80535438D02*
X155160143Y-80583057D01*
X155160143Y-80583057D02*
X155064905Y-80725914D01*
X155064905Y-80725914D02*
X155017286Y-80916390D01*
X155017286Y-80916390D02*
X155017286Y-81297342D01*
X155017286Y-81297342D02*
X155064905Y-81392580D01*
X155064905Y-81392580D02*
X155112524Y-81440200D01*
X155112524Y-81440200D02*
X155207762Y-81487819D01*
X155207762Y-81487819D02*
X155398238Y-81487819D01*
X155398238Y-81487819D02*
X155493476Y-81440200D01*
X155493476Y-81440200D02*
X155541095Y-81392580D01*
X155541095Y-81392580D02*
X155588714Y-81297342D01*
X155588714Y-81297342D02*
X155588714Y-81059247D01*
X155588714Y-81059247D02*
X155541095Y-80964009D01*
X155541095Y-80964009D02*
X155493476Y-80916390D01*
X155493476Y-80916390D02*
X155398238Y-80868771D01*
X155398238Y-80868771D02*
X155207762Y-80868771D01*
X155207762Y-80868771D02*
X155112524Y-80916390D01*
X155112524Y-80916390D02*
X155064905Y-80964009D01*
X155064905Y-80964009D02*
X155017286Y-81059247D01*
X148331580Y-89066666D02*
X148379200Y-89114285D01*
X148379200Y-89114285D02*
X148426819Y-89257142D01*
X148426819Y-89257142D02*
X148426819Y-89352380D01*
X148426819Y-89352380D02*
X148379200Y-89495237D01*
X148379200Y-89495237D02*
X148283961Y-89590475D01*
X148283961Y-89590475D02*
X148188723Y-89638094D01*
X148188723Y-89638094D02*
X147998247Y-89685713D01*
X147998247Y-89685713D02*
X147855390Y-89685713D01*
X147855390Y-89685713D02*
X147664914Y-89638094D01*
X147664914Y-89638094D02*
X147569676Y-89590475D01*
X147569676Y-89590475D02*
X147474438Y-89495237D01*
X147474438Y-89495237D02*
X147426819Y-89352380D01*
X147426819Y-89352380D02*
X147426819Y-89257142D01*
X147426819Y-89257142D02*
X147474438Y-89114285D01*
X147474438Y-89114285D02*
X147522057Y-89066666D01*
X147426819Y-88161904D02*
X147426819Y-88638094D01*
X147426819Y-88638094D02*
X147903009Y-88685713D01*
X147903009Y-88685713D02*
X147855390Y-88638094D01*
X147855390Y-88638094D02*
X147807771Y-88542856D01*
X147807771Y-88542856D02*
X147807771Y-88304761D01*
X147807771Y-88304761D02*
X147855390Y-88209523D01*
X147855390Y-88209523D02*
X147903009Y-88161904D01*
X147903009Y-88161904D02*
X147998247Y-88114285D01*
X147998247Y-88114285D02*
X148236342Y-88114285D01*
X148236342Y-88114285D02*
X148331580Y-88161904D01*
X148331580Y-88161904D02*
X148379200Y-88209523D01*
X148379200Y-88209523D02*
X148426819Y-88304761D01*
X148426819Y-88304761D02*
X148426819Y-88542856D01*
X148426819Y-88542856D02*
X148379200Y-88638094D01*
X148379200Y-88638094D02*
X148331580Y-88685713D01*
X162418580Y-86135666D02*
X162466200Y-86183285D01*
X162466200Y-86183285D02*
X162513819Y-86326142D01*
X162513819Y-86326142D02*
X162513819Y-86421380D01*
X162513819Y-86421380D02*
X162466200Y-86564237D01*
X162466200Y-86564237D02*
X162370961Y-86659475D01*
X162370961Y-86659475D02*
X162275723Y-86707094D01*
X162275723Y-86707094D02*
X162085247Y-86754713D01*
X162085247Y-86754713D02*
X161942390Y-86754713D01*
X161942390Y-86754713D02*
X161751914Y-86707094D01*
X161751914Y-86707094D02*
X161656676Y-86659475D01*
X161656676Y-86659475D02*
X161561438Y-86564237D01*
X161561438Y-86564237D02*
X161513819Y-86421380D01*
X161513819Y-86421380D02*
X161513819Y-86326142D01*
X161513819Y-86326142D02*
X161561438Y-86183285D01*
X161561438Y-86183285D02*
X161609057Y-86135666D01*
X161847152Y-85278523D02*
X162513819Y-85278523D01*
X161466200Y-85516618D02*
X162180485Y-85754713D01*
X162180485Y-85754713D02*
X162180485Y-85135666D01*
X147125333Y-91655580D02*
X147077714Y-91703200D01*
X147077714Y-91703200D02*
X146934857Y-91750819D01*
X146934857Y-91750819D02*
X146839619Y-91750819D01*
X146839619Y-91750819D02*
X146696762Y-91703200D01*
X146696762Y-91703200D02*
X146601524Y-91607961D01*
X146601524Y-91607961D02*
X146553905Y-91512723D01*
X146553905Y-91512723D02*
X146506286Y-91322247D01*
X146506286Y-91322247D02*
X146506286Y-91179390D01*
X146506286Y-91179390D02*
X146553905Y-90988914D01*
X146553905Y-90988914D02*
X146601524Y-90893676D01*
X146601524Y-90893676D02*
X146696762Y-90798438D01*
X146696762Y-90798438D02*
X146839619Y-90750819D01*
X146839619Y-90750819D02*
X146934857Y-90750819D01*
X146934857Y-90750819D02*
X147077714Y-90798438D01*
X147077714Y-90798438D02*
X147125333Y-90846057D01*
X147458667Y-90750819D02*
X148077714Y-90750819D01*
X148077714Y-90750819D02*
X147744381Y-91131771D01*
X147744381Y-91131771D02*
X147887238Y-91131771D01*
X147887238Y-91131771D02*
X147982476Y-91179390D01*
X147982476Y-91179390D02*
X148030095Y-91227009D01*
X148030095Y-91227009D02*
X148077714Y-91322247D01*
X148077714Y-91322247D02*
X148077714Y-91560342D01*
X148077714Y-91560342D02*
X148030095Y-91655580D01*
X148030095Y-91655580D02*
X147982476Y-91703200D01*
X147982476Y-91703200D02*
X147887238Y-91750819D01*
X147887238Y-91750819D02*
X147601524Y-91750819D01*
X147601524Y-91750819D02*
X147506286Y-91703200D01*
X147506286Y-91703200D02*
X147458667Y-91655580D01*
X151588333Y-87200580D02*
X151540714Y-87248200D01*
X151540714Y-87248200D02*
X151397857Y-87295819D01*
X151397857Y-87295819D02*
X151302619Y-87295819D01*
X151302619Y-87295819D02*
X151159762Y-87248200D01*
X151159762Y-87248200D02*
X151064524Y-87152961D01*
X151064524Y-87152961D02*
X151016905Y-87057723D01*
X151016905Y-87057723D02*
X150969286Y-86867247D01*
X150969286Y-86867247D02*
X150969286Y-86724390D01*
X150969286Y-86724390D02*
X151016905Y-86533914D01*
X151016905Y-86533914D02*
X151064524Y-86438676D01*
X151064524Y-86438676D02*
X151159762Y-86343438D01*
X151159762Y-86343438D02*
X151302619Y-86295819D01*
X151302619Y-86295819D02*
X151397857Y-86295819D01*
X151397857Y-86295819D02*
X151540714Y-86343438D01*
X151540714Y-86343438D02*
X151588333Y-86391057D01*
X151969286Y-86391057D02*
X152016905Y-86343438D01*
X152016905Y-86343438D02*
X152112143Y-86295819D01*
X152112143Y-86295819D02*
X152350238Y-86295819D01*
X152350238Y-86295819D02*
X152445476Y-86343438D01*
X152445476Y-86343438D02*
X152493095Y-86391057D01*
X152493095Y-86391057D02*
X152540714Y-86486295D01*
X152540714Y-86486295D02*
X152540714Y-86581533D01*
X152540714Y-86581533D02*
X152493095Y-86724390D01*
X152493095Y-86724390D02*
X151921667Y-87295819D01*
X151921667Y-87295819D02*
X152540714Y-87295819D01*
X151080333Y-81612580D02*
X151032714Y-81660200D01*
X151032714Y-81660200D02*
X150889857Y-81707819D01*
X150889857Y-81707819D02*
X150794619Y-81707819D01*
X150794619Y-81707819D02*
X150651762Y-81660200D01*
X150651762Y-81660200D02*
X150556524Y-81564961D01*
X150556524Y-81564961D02*
X150508905Y-81469723D01*
X150508905Y-81469723D02*
X150461286Y-81279247D01*
X150461286Y-81279247D02*
X150461286Y-81136390D01*
X150461286Y-81136390D02*
X150508905Y-80945914D01*
X150508905Y-80945914D02*
X150556524Y-80850676D01*
X150556524Y-80850676D02*
X150651762Y-80755438D01*
X150651762Y-80755438D02*
X150794619Y-80707819D01*
X150794619Y-80707819D02*
X150889857Y-80707819D01*
X150889857Y-80707819D02*
X151032714Y-80755438D01*
X151032714Y-80755438D02*
X151080333Y-80803057D01*
X152032714Y-81707819D02*
X151461286Y-81707819D01*
X151747000Y-81707819D02*
X151747000Y-80707819D01*
X151747000Y-80707819D02*
X151651762Y-80850676D01*
X151651762Y-80850676D02*
X151556524Y-80945914D01*
X151556524Y-80945914D02*
X151461286Y-80993533D01*
X153413333Y-70889104D02*
X153889523Y-70889104D01*
X153318095Y-71174819D02*
X153651428Y-70174819D01*
X153651428Y-70174819D02*
X153984761Y-71174819D01*
X154318095Y-70651009D02*
X154651428Y-70651009D01*
X154794285Y-71174819D02*
X154318095Y-71174819D01*
X154318095Y-71174819D02*
X154318095Y-70174819D01*
X154318095Y-70174819D02*
X154794285Y-70174819D01*
X155746666Y-71174819D02*
X155175238Y-71174819D01*
X155460952Y-71174819D02*
X155460952Y-70174819D01*
X155460952Y-70174819D02*
X155365714Y-70317676D01*
X155365714Y-70317676D02*
X155270476Y-70412914D01*
X155270476Y-70412914D02*
X155175238Y-70460533D01*
D11*
%TO.C,Y1*%
X165213000Y-84923000D02*
X165213000Y-86273000D01*
X163463000Y-84923000D02*
X163463000Y-86273000D01*
%TO.C,U1*%
X158828000Y-86983000D02*
X158828000Y-87708000D01*
X158828000Y-84213000D02*
X158828000Y-83488000D01*
X154608000Y-84213000D02*
X154608000Y-83488000D01*
X158828000Y-83488000D02*
X158103000Y-83488000D01*
X154608000Y-83488000D02*
X155333000Y-83488000D01*
X154608000Y-86983000D02*
X154608000Y-87708000D01*
X158828000Y-87708000D02*
X158103000Y-87708000D01*
%TO.C,R2*%
X160340000Y-81796000D02*
X160340000Y-82796000D01*
X160340000Y-82796000D02*
X162240000Y-82796000D01*
X162240000Y-82796000D02*
X162240000Y-81796000D01*
X162240000Y-81796000D02*
X160340000Y-81796000D01*
%TO.C,R1*%
X161986000Y-89654000D02*
X161986000Y-88654000D01*
X161986000Y-88654000D02*
X160086000Y-88654000D01*
X160086000Y-88654000D02*
X160086000Y-89654000D01*
X160086000Y-89654000D02*
X161986000Y-89654000D01*
%TO.C,J1*%
X150280000Y-94814000D02*
X150280000Y-95264000D01*
X159730000Y-95114000D02*
X158980000Y-95114000D01*
X158980000Y-94814000D02*
X152230000Y-94814000D01*
X149680000Y-93714000D02*
X149980000Y-93714000D01*
X161840000Y-93264000D02*
X161840000Y-91354000D01*
X149980000Y-92964000D02*
X149680000Y-92964000D01*
X161230000Y-93714000D02*
X161230000Y-94814000D01*
X151480000Y-95114000D02*
X151480000Y-94814000D01*
X159730000Y-94814000D02*
X159730000Y-95114000D01*
X158980000Y-95114000D02*
X158980000Y-94814000D01*
X149680000Y-91664000D02*
X149680000Y-95264000D01*
X161840000Y-91354000D02*
X159930000Y-91354000D01*
X161530000Y-92964000D02*
X161230000Y-92964000D01*
X149980000Y-94814000D02*
X150280000Y-94814000D01*
X161230000Y-94814000D02*
X160930000Y-94814000D01*
X161230000Y-91964000D02*
X149980000Y-91964000D01*
X161530000Y-95264000D02*
X161530000Y-91664000D01*
X151480000Y-94814000D02*
X150280000Y-94814000D01*
X149680000Y-95264000D02*
X161530000Y-95264000D01*
X149980000Y-91964000D02*
X149980000Y-92964000D01*
X160930000Y-94814000D02*
X160930000Y-95264000D01*
X149980000Y-93714000D02*
X149980000Y-94814000D01*
X160930000Y-94814000D02*
X159730000Y-94814000D01*
X152230000Y-94814000D02*
X152230000Y-95114000D01*
X161530000Y-91664000D02*
X149680000Y-91664000D01*
X152230000Y-95114000D02*
X151480000Y-95114000D01*
X161230000Y-92964000D02*
X161230000Y-91964000D01*
X161530000Y-93714000D02*
X161230000Y-93714000D01*
%TO.C,C11*%
X149752164Y-79904000D02*
X149967836Y-79904000D01*
X149752164Y-80624000D02*
X149967836Y-80624000D01*
%TO.C,C10*%
X146986164Y-83206000D02*
X147201836Y-83206000D01*
X146986164Y-83926000D02*
X147201836Y-83926000D01*
%TO.C,C9*%
X146958164Y-85492000D02*
X147173836Y-85492000D01*
X146958164Y-86212000D02*
X147173836Y-86212000D01*
%TO.C,C8*%
X154910836Y-81503000D02*
X154695164Y-81503000D01*
X154910836Y-80783000D02*
X154695164Y-80783000D01*
%TO.C,C7*%
X149459836Y-86212000D02*
X149244164Y-86212000D01*
X149459836Y-85492000D02*
X149244164Y-85492000D01*
%TO.C,C6*%
X154910836Y-80233000D02*
X154695164Y-80233000D01*
X154910836Y-79513000D02*
X154695164Y-79513000D01*
%TO.C,C5*%
X147172000Y-88792164D02*
X147172000Y-89007836D01*
X146452000Y-88792164D02*
X146452000Y-89007836D01*
%TO.C,C4*%
X161259000Y-85861164D02*
X161259000Y-86076836D01*
X160539000Y-85861164D02*
X160539000Y-86076836D01*
%TO.C,C3*%
X147184164Y-92096000D02*
X147399836Y-92096000D01*
X147184164Y-92816000D02*
X147399836Y-92816000D01*
%TO.C,C2*%
X151647164Y-87641000D02*
X151862836Y-87641000D01*
X151647164Y-88361000D02*
X151862836Y-88361000D01*
%TO.C,C1*%
X151139164Y-82053000D02*
X151354836Y-82053000D01*
X151139164Y-82773000D02*
X151354836Y-82773000D01*
%TD*%
M02*
